<svg width="524" height="800" viewBox="0 0 524 800" fill="none" xmlns="http://www.w3.org/2000/svg">
<ellipse cx="262" cy="195" rx="140" ry="150" fill="#EC3333"/>
<path d="M262 345L488.899 686.25H35.1013L262 345Z" fill="#9D891C"/>
<line x1="113.997" y1="688.25" x2="111.997" y2="768.25" stroke="black" stroke-width="20"/>
<line x1="416.99" y1="687.561" x2="420.99" y2="778.561" stroke="black" stroke-width="20"/>
<path d="M194.5 1L222.646 82.75H166.354L194.5 1Z" fill="#D9D9D9"/>
<path d="M194.5 1L222.646 82.75H166.354L194.5 1Z" fill="#D9D9D9"/>
<path d="M194.5 1L222.646 82.75H166.354L194.5 1Z" fill="#D9D9D9"/>
<path d="M320.5 0L339.12 68.25H301.88L320.5 0Z" fill="#D9D9D9"/>
<path d="M196 180C205.389 180 213 171.493 213 161C213 150.507 205.389 142 196 142C186.611 142 179 150.507 179 161C179 171.493 186.611 180 196 180Z" fill="#6A5E5E"/>
<path d="M325 180C334.389 180 342 171.493 342 161C342 150.507 334.389 142 325 142C315.611 142 308 150.507 308 161C308 171.493 315.611 180 325 180Z" fill="#6A5E5E"/>
<path d="M214.5 260.5C248.1 280.5 290.833 268.833 308 260.5" stroke="black" stroke-width="10"/>
</svg>
